<?xml version="1.0" encoding="UTF-8" standalone="no"?>
<svg
   version="1.1"
   id="Layer_1"
   x="0px"
   y="0px"
   width="100%"
   viewBox="0 0 1024 1024"
   enable-background="new 0 0 1024 1024"
   xml:space="preserve"
   sodipodi:docname="owl.svg"
   inkscape:version="1.3.2 (091e20ef0f, 2023-11-25, custom)"
   inkscape:export-filename="owl.png"
   inkscape:export-xdpi="48"
   inkscape:export-ydpi="48"
   xmlns:inkscape="http://www.inkscape.org/namespaces/inkscape"
   xmlns:sodipodi="http://sodipodi.sourceforge.net/DTD/sodipodi-0.dtd"
   xmlns="http://www.w3.org/2000/svg"
   xmlns:svg="http://www.w3.org/2000/svg"><defs
   id="defs6" /><sodipodi:namedview
   id="namedview6"
   pagecolor="#505050"
   bordercolor="#eeeeee"
   borderopacity="1"
   inkscape:showpageshadow="0"
   inkscape:pageopacity="0"
   inkscape:pagecheckerboard="0"
   inkscape:deskcolor="#505050"
   inkscape:zoom="0.55035557"
   inkscape:cx="425.17967"
   inkscape:cy="469.69635"
   inkscape:window-width="1920"
   inkscape:window-height="1001"
   inkscape:window-x="0"
   inkscape:window-y="0"
   inkscape:window-maximized="1"
   inkscape:current-layer="Layer_1"
   inkscape:export-bgcolor="#000000ff" />






<path
   style="fill:#ffffff;stroke:none;stroke-width:6.27836"
   d="M 286.00988,553.53124 C 233.48409,544.01017 178.72567,498.87321 154.27114,444.93993 137.3613,407.64609 130.15755,355.09015 136.53189,315.52088 c 3.77995,-23.46422 15.2502,-56.08565 25.28372,-71.90685 l 7.3737,-11.62712 12.57826,6.37389 c 6.91804,3.50565 12.57829,6.88102 12.57829,7.50081 0,0.61981 -3.99476,8.39447 -8.87723,17.27707 -15.04973,27.37959 -14.07419,49.94552 2.15914,49.94552 8.94048,0 12.86158,-3.66293 16.33638,-15.26083 3.80168,-12.68885 16.88594,-30.57118 22.36853,-30.57118 3.43602,0 28.91139,9.05409 32.98971,11.72475 0.51551,0.33755 -3.68004,5.85937 -9.3235,12.27067 -22.70614,25.79552 -31.8085,50.61847 -30.00235,81.8189 2.18757,37.78904 28.42015,76.74382 63.2832,93.97407 53.83684,26.60759 122.4654,2.72083 149.40166,-52.00058 7.10889,-14.44186 8.41105,-20.11756 9.61083,-41.89142 l 1.38785,-25.18624 6.3108,9.24395 c 12.74213,18.66439 16.60987,30.66734 16.33113,50.68113 -0.48125,34.55487 -19.26082,75.85346 -47.47069,104.3939 -27.38798,27.70891 -56.43544,40.54869 -95.89615,42.38876 -13.41371,0.62549 -30.0391,0.11291 -36.94529,-1.13884 z"
   id="path7" /><path
   style="fill:#ffffff;stroke:none;stroke-width:6.27836"
   d="m 244.22475,642.82816 c -5.42753,-3.68812 -10.68515,-10.24011 -13.13967,-16.37457 -4.16268,-10.40359 -5.76742,-42.77216 -2.12051,-42.77216 1.08418,0 11.53767,3.7964 23.22993,8.43642 11.69226,4.64003 25.65597,10.00813 31.03051,11.92917 14.06181,5.0261 15.73993,9.07403 9.55665,23.05237 -9.29646,21.0162 -30.61383,27.92141 -48.55691,15.72877 z"
   id="path9" /><path
   style="fill:#ffffff;stroke:none;stroke-width:6.27836"
   d="M 257.95448,834.16358 226.99331,803.2024 v -62.31365 c 0,-58.38165 0.27732,-62.19609 4.39484,-60.451 23.67815,10.03529 39.85684,10.72632 55.97578,2.3909 4.34633,-2.2476 8.64496,-3.3439 9.55253,-2.43625 1.84858,1.84871 2.68919,157.99762 0.92852,172.47559 -2.0288,16.68269 -6.68815,14.49795 -39.8905,-18.70441 z"
   id="path10" /><path
   style="fill:#ffffff;stroke:none;stroke-width:6.27836"
   d="m 364.62416,686.54468 c -17.48847,-9.23625 -28.32483,-30.47472 -26.69544,-52.32104 l 0.81935,-10.98572 17.57942,-4.56541 c 9.66867,-2.51098 18.97787,-4.63056 20.68708,-4.71016 1.70923,-0.0796 6.07558,4.65816 9.70304,10.52843 3.62744,5.87025 11.69873,15.94609 17.93618,22.39076 9.08467,9.38645 11.03719,12.92746 9.81444,17.7992 -3.53538,14.08609 -20.47188,27.15555 -34.83014,26.87748 -3.15216,-0.061 -9.90842,-2.31713 -15.01393,-5.01354 z"
   id="path11" /><path
   style="fill:#ffffff;stroke:none;stroke-width:6.27836"
   d="m 370.42203,895.71586 -30.31071,-32.01963 -0.0537,-72.20113 c -0.0295,-39.71062 0.36762,-72.20112 0.88266,-72.20112 0.51504,0 6.32124,2.38196 12.90263,5.29323 18.14608,8.02687 39.64132,5.6148 64.64041,-7.25358 1.03593,-0.53324 1.8835,44.07736 1.8835,99.13468 0,86.53761 -0.52982,100.86066 -3.90942,105.68569 -7.74105,11.05191 -13.88783,7.5218 -46.0353,-26.43814 z"
   id="path12" /><path
   style="fill:#ffffff;stroke:none;stroke-width:6.27836"
   d="m 496.96271,743.2708 c -12.91193,-4.73454 -30.1743,-22.94927 -33.6653,-35.52262 -2.93532,-10.57194 -3.65549,-26.89223 -1.29104,-29.2567 0.80196,-0.80199 9.56029,0.81784 19.46291,3.59961 19.55464,5.49312 44.33585,5.26677 63.86155,-0.58329 14.18158,-4.24888 18.20689,-2.14298 18.07227,9.45475 -0.42973,37.0211 -34.65222,63.96434 -66.44039,52.30825 z"
   id="path13" /><path
   style="fill:#ffffff;stroke:none;stroke-width:6.27836"
   d="m 493.76224,962.35096 c -9.7688,-10.06046 -21.2383,-22.68502 -25.48773,-28.0546 l -7.72626,-9.76286 v -75.83209 c 0,-41.70765 0.65343,-76.48553 1.45208,-77.28418 0.79865,-0.79864 6.73169,1.26605 13.18455,4.58821 24.35238,12.53747 50.0728,12.44325 72.81349,-0.26676 6.2499,-3.49313 12.24632,-5.4683 13.32535,-4.38928 1.07905,1.07906 2.13056,35.43214 2.33668,76.34019 0.27927,55.42557 -0.42823,75.9003 -2.77659,80.35127 -3.024,5.73156 -44.03778,50.42109 -47.62156,51.8895 -0.95618,0.3918 -9.73118,-7.51894 -19.50001,-17.5794 z"
   id="path14" /><path
   style="fill:#ffffff;stroke:none;stroke-width:6.27836"
   d="m 610.601,925.02298 c -4.07094,-2.37112 -4.39484,-10.04649 -4.39484,-104.14437 0,-55.87156 0.61008,-101.58463 1.35572,-101.58463 0.74565,0 6.02168,2.3804 11.72453,5.28978 14.05378,7.16971 34.60443,7.23092 50.60412,0.1507 6.711,-2.96977 13.20909,-4.77703 14.44021,-4.01616 1.23113,0.76088 2.23841,33.0273 2.23841,71.70315 v 70.31973 l -13.07576,14.28989 c -45.33639,49.54599 -51.78094,54.4637 -62.89239,47.99187 z"
   id="path15" /><path
   style="fill:#ffffff;stroke:none;stroke-width:7.45975"
   d="m 499.39802,591.23066 c -31.1136,-70.28183 -38.31086,-89.26667 -36.27416,-95.68368 1.11685,-3.51888 7.25561,-14.05259 13.64172,-23.40817 6.38607,-9.35564 15.37718,-26.19963 19.98027,-37.43107 7.56541,-18.45956 9.18061,-20.42086 16.81757,-20.42086 7.60723,0 9.30684,2.027 17.07114,20.35939 4.74252,11.1977 14.59834,29.96153 21.90182,41.69745 7.30346,11.73589 13.27425,22.71549 13.26845,24.39907 -0.0144,4.06347 -47.44393,115.77116 -50.45606,118.83494 -1.29,1.31208 -8.46783,-11.4441 -15.95075,-28.34707 z"
   id="path16" /><path
   style="fill:#ffffff;stroke:none;stroke-width:6.27836"
   d="m 729.64671,861.82074 c -3.10288,-3.10287 -4.37988,-177.876 -1.32201,-180.93386 0.86575,-0.86575 4.80163,0.0949 8.74644,2.13488 11.82565,6.11531 27.34614,7.06173 39.90638,2.4335 6.21556,-2.29034 13.2787,-4.78622 15.69588,-5.54641 4.10449,-1.29085 4.39485,2.72774 4.39485,60.82427 v 62.20643 l -28.25262,28.70099 c -31.13856,31.63278 -34.85376,34.49538 -39.16892,30.1802 z"
   id="path18" /><path
   style="fill:#ffffff;stroke:none;stroke-width:6.27836"
   d="m 836.41264,770.35796 c -0.92082,-0.92081 -1.67424,-48.42995 -1.67424,-105.57585 V 560.88045 l 9.41754,-9.61882 c 17.95033,-18.33396 37.10393,-43.0219 49.88165,-64.29465 l 12.8393,-21.37536 1.60091,11.6799 c 2.33236,17.01641 1.92237,58.19591 -0.90941,91.34187 -6.17653,72.29606 -26.25596,136.91403 -58.322,187.68695 -10.68245,16.9145 -10.34573,16.54564 -12.83375,14.05762 z"
   id="path19" /><path
   style="fill:#ffffff;stroke:none;stroke-width:6.27836"
   d="m 747.89223,646.54324 c -8.01622,-3.24288 -18.24256,-16.80422 -20.08745,-26.63834 -0.91138,-4.8581 -1.23887,-9.23106 -0.72777,-9.71774 1.71763,-1.63547 61.15909,-24.30959 64.96856,-24.78247 3.05813,-0.37958 3.76701,3.11289 3.76701,18.55893 0,16.08486 -0.95293,20.41608 -6.16356,28.01421 -10.44921,15.23704 -26.36941,20.79026 -41.75679,14.56541 z"
   id="path20" /><path
   style="fill:#ffffff;stroke:none;stroke-width:6.27836"
   d="m 629.48797,686.85881 c -10.38806,-4.8344 -20.74194,-17.52366 -20.76108,-25.44389 -0.005,-2.13684 4.62348,-8.35242 10.28589,-13.81239 5.66241,-5.45995 13.61547,-15.74414 17.67348,-22.85368 l 7.37822,-12.92647 16.85749,5.06776 c 25.3683,7.62637 24.41888,6.62252 24.18824,25.57442 -0.17318,14.23003 -1.28861,18.23731 -7.53404,27.06661 -14.5377,20.55227 -29.54188,25.95873 -48.0882,17.32764 z"
   id="path21" /><path
   style="fill:#ffffff;stroke:none;stroke-width:2.21974"
   d="m 324.10221,444.52539 c -1.76939,-1.52509 -2.48299,-3.219 -3.01617,-7.15948 -0.85354,-6.3084 -2.25953,-7.77958 -9.8133,-10.26832 -3.14893,-1.03746 -7.31007,-2.98452 -9.24697,-4.3268 -5.17599,-3.58697 -11.12986,-3.42836 -16.70791,0.44516 -5.74998,3.9929 -8.5513,3.82528 -12.69336,-0.75945 -3.72737,-4.12578 -5.83965,-8.47465 -5.10703,-10.51471 0.27224,-0.75808 2.06506,-3.1084 3.98407,-5.2229 3.13747,-3.45713 3.44788,-4.21771 3.08016,-7.5471 -0.35791,-3.24049 -3.22895,-11.27151 -6.14332,-17.18436 -1.18001,-2.39408 -4.18778,-3.58748 -10.29225,-4.08365 -7.62349,-0.61964 -10.94276,-5.50919 -9.50735,-14.00523 0.87995,-5.20841 3.9273,-7.94057 8.85651,-7.94057 5.03876,0 9.66518,-1.85895 11.4166,-4.58728 1.95904,-3.05178 5.91122,-15.78848 5.91122,-19.05009 0,-1.91871 -1.14614,-4.3408 -3.58297,-7.57175 -4.20655,-5.57733 -4.12512,-7.18535 0.65947,-13.02431 4.8158,-5.87706 6.61964,-6.19987 12.91856,-2.31195 6.93354,4.27965 10.66326,4.29148 16.94149,0.0537 2.52103,-1.70162 6.91635,-3.80801 9.76737,-4.68086 6.18634,-1.89399 9.46659,-5.24078 9.46659,-9.65867 0,-6.97678 3.61825,-10.20047 11.449,-10.20047 6.21842,0 8.84068,2.39523 9.57797,8.74874 0.70437,6.07005 3.1345,8.98733 9.28493,11.14624 2.61796,0.91893 7.19559,3.01156 10.17259,4.65025 6.48574,3.57015 9.63401,3.71781 15.36593,0.72067 2.37592,-1.24234 5.7677,-2.49375 7.53728,-2.78089 2.84362,-0.46147 3.55199,-0.16537 6.09656,2.54897 1.58351,1.68908 3.52488,4.84573 4.31417,7.01474 1.40203,3.8528 1.38598,4.01493 -0.69607,7.03499 -4.99908,7.25125 -5.80171,16.64367 -2.05061,23.99645 2.95873,5.79957 4.70782,7.06346 9.77511,7.06346 5.30943,0 10.10876,1.81356 11.45471,4.32849 1.62434,3.03514 2.11495,9.44738 0.98483,12.87174 -1.49071,4.51688 -3.87322,5.88502 -10.24832,5.88502 -5.26163,0 -9.32287,1.60135 -9.32287,3.67598 0,0.5014 -1.19868,3.90511 -2.6637,7.56383 -3.3093,8.26456 -3.484,13.38674 -0.57586,16.88269 2.9006,3.4869 4.12744,6.02339 4.12744,8.53351 0,2.97835 -4.77963,9.28202 -8.31689,10.96881 -3.22296,1.53692 -2.80693,1.66921 -11.66074,-3.70772 -4.79672,-2.91304 -8.01183,-2.73625 -14.73842,0.81042 -3.12572,1.64807 -7.97527,3.65548 -10.77678,4.46086 -5.45904,1.5694 -7.78082,4.24099 -7.78082,8.95312 0,3.34252 -2.23876,8.16065 -4.30594,9.26697 -0.98591,0.52765 -3.9941,0.95938 -6.68483,0.95938 -3.79481,0 -5.41224,-0.44817 -7.21008,-1.99777 z m 19.97664,-34.96849 c 24.34533,-6.83335 39.15936,-32.54921 31.97344,-55.50315 -3.4917,-11.15345 -9.8182,-19.59944 -19.50456,-26.03892 -8.98656,-5.97426 -14.73658,-7.77762 -24.8994,-7.80917 -16.01869,-0.0497 -28.83918,6.62563 -37.67293,19.61543 -12.70612,18.68402 -10.65596,40.86042 5.34563,57.82292 11.9177,12.6334 27.4562,16.76918 44.75782,11.91289 z"
   id="path22" /><path
   style="fill:#ffffff;stroke:none;stroke-width:2.21974"
   d="m 320.23987,386.96115 c -8.56425,-4.27961 -12.91122,-11.96558 -12.83036,-22.68564 0.0942,-12.49885 10.64201,-22.82562 23.35892,-22.86949 17.59721,-0.0608 29.48135,18.79736 21.77375,34.55115 -6.10086,12.46969 -19.93692,17.18303 -32.30231,11.00398 z m 15.43342,-11.64447 c 2.82542,-1.28735 5.59164,-6.411 5.89524,-10.91938 0.19,-2.82107 -0.26229,-3.75509 -3.05979,-6.31879 -3.71739,-3.40672 -7.0208,-3.85829 -11.763,-1.60798 -5.06006,2.40116 -7.362,10.11233 -4.31667,14.46015 1.8509,2.64252 6.45364,5.44131 8.95551,5.44554 1.07579,0.001 3.00572,-0.47497 4.28871,-1.05954 z"
   id="path23" /><path
   style="fill:#ffffff;stroke:none;stroke-width:2.21974"
   d="m 683.18604,443.92777 c -2.1603,-2.1603 -2.59538,-3.3226 -2.59538,-6.93345 0,-2.38592 -0.49944,-5.00599 -1.10985,-5.82237 -1.78716,-2.39011 -22.5387,-11.2856 -26.32724,-11.2856 -2.48627,0 -4.51225,0.89067 -8.07866,3.55157 -5.66857,4.2293 -8.54189,4.50119 -11.73001,1.10987 -3.49632,-3.71916 -6.91577,-9.15577 -6.91577,-10.99546 0,-0.9057 1.79798,-3.47054 3.99551,-5.69962 4.9673,-5.03862 5.22912,-8.2846 1.33255,-16.52123 -1.46463,-3.09597 -2.66329,-6.34641 -2.66368,-7.22322 -3.7e-4,-0.8768 -0.98142,-2.57488 -2.18008,-3.77355 -1.88798,-1.88802 -2.98928,-2.17938 -8.23742,-2.17938 -7.07773,0 -9.39546,-1.23486 -10.90548,-5.81015 -1.76835,-5.35822 -1.42494,-10.80403 0.83289,-13.20736 2.21174,-2.3543 8.42791,-4.26936 11.36495,-3.50131 1.04718,0.27384 3.28699,0.0414 4.97734,-0.5164 3.56299,-1.17588 5.78969,-5.46359 8.32636,-16.03314 1.68795,-7.03317 1.68297,-7.05186 -3.69093,-13.77926 -1.70408,-2.1333 -2.61928,-4.2987 -2.61928,-6.19733 0,-5.39869 8.16993,-13.48915 12.55682,-12.43472 1.09498,0.26319 3.87019,1.67034 6.16713,3.12701 5.79764,3.67677 10.06536,3.58413 15.58232,-0.33829 2.31055,-1.64271 6.53625,-3.64202 9.39046,-4.44286 6.64883,-1.86558 8.87096,-4.25229 9.91149,-10.64568 0.99087,-6.08825 1.17972,-6.42121 4.66339,-8.22269 3.42995,-1.77368 10.63234,-1.25381 13.05937,0.94265 0.93617,0.84722 1.97824,3.20289 2.31575,5.23487 1.22579,7.38016 4.62432,11.20465 11.86845,13.35595 2.26461,0.67251 6.08364,2.46965 8.48672,3.99365 5.87102,3.7233 9.38028,3.64737 15.56422,-0.33672 2.65296,-1.70921 5.43634,-3.10613 6.18533,-3.10433 4.21918,0.009 12.46044,9.18969 12.46044,13.87889 0,1.09552 -1.59606,3.83602 -3.54685,6.08995 -4.7742,5.51618 -5.18821,7.68039 -2.71612,14.19862 1.11395,2.9373 2.61066,6.93557 3.326,8.88509 1.92885,5.25684 2.647,5.77831 7.95761,5.77831 5.259,0 10.57064,1.81312 12.38299,4.22692 2.86948,3.8218 2.18659,14.45651 -1.10369,17.1872 -0.79486,0.65966 -4.38395,1.43977 -7.9758,1.73356 -7.68667,0.62873 -9.56656,1.93142 -11.3312,7.85225 -0.66749,2.23952 -1.89356,5.67009 -2.72464,7.62346 -2.40361,5.64966 -2.0052,8.74415 1.6802,13.04973 3.73484,4.36328 4.65598,7.1147 3.34514,9.9917 -1.5073,3.30813 -6.18644,8.17623 -8.9652,9.32725 -2.79336,1.15704 -4.33717,0.57859 -10.65932,-3.99383 -4.23509,-3.06297 -8.34771,-2.83993 -15.27305,0.8283 -3.12572,1.65564 -7.39375,3.52063 -9.48447,4.14439 -5.42833,1.61954 -7.83884,4.38915 -8.56152,9.83704 -0.89869,6.77452 -4.08987,9.64511 -10.72238,9.64511 -4.36458,0 -5.35889,-0.33886 -7.61541,-2.59539 z m 23.38684,-36.99972 c 2.32583,-0.76903 6.60464,-2.98478 9.50847,-4.92387 22.40823,-14.96364 25.03344,-48.57412 5.32941,-68.23203 -23.43215,-23.37724 -63.85216,-12.41045 -72.38238,19.63885 -1.70716,6.41397 -1.6464,19.6488 0.11787,25.69304 6.76034,23.1596 33.03356,35.88938 57.42655,27.82401 z"
   id="path24" /><path
   style="fill:#ffffff;stroke:none;stroke-width:1.68453"
   d="m 443.07931,292.43601 c -22.42271,-11.83903 -32.74242,-16.2477 -72.33459,-30.90184 -31.02851,-11.48449 -41.08497,-15.56776 -54.91528,-22.29734 -53.371,-25.96941 -94.40243,-64.72998 -121.84678,-115.10325 -13.71125,-25.166564 -25.16497,-57.6701 -21.1881,-60.127935 1.34138,-0.829019 4.32301,-0.341098 13.27873,2.172968 51.91888,14.574815 101.24368,37.216687 140.92564,64.689987 47.06454,32.58451 84.07407,77.70522 118.33191,144.26606 6.81285,13.23697 7.67508,15.29169 7.49028,17.8501 -0.14744,2.04166 -0.53508,2.953 -1.31922,3.10161 -0.61073,0.11569 -4.40087,-1.52693 -8.42259,-3.65036 z"
   id="path25" /><path
   style="fill:#ffffff;stroke:none;stroke-width:1.68453"
   d="m 575.62095,296.97081 c -1.27318,-2.37898 21.05782,-45.07453 34.5752,-66.10566 24.64548,-38.34489 51.89094,-68.50414 83.97852,-92.95965 27.34926,-20.84423 64.27075,-40.882124 103.23687,-56.028356 11.18938,-4.349352 42.60957,-14.759375 50.80565,-16.832754 5.97459,-1.511401 6.19564,-1.520679 8.00424,-0.335641 1.75218,1.148072 1.83971,1.439031 1.51026,5.020562 -0.19236,2.091007 -1.76596,8.127698 -3.49695,13.414862 -22.17393,67.729137 -72.62948,124.288777 -140.18522,157.144747 -17.38912,8.45727 -28.96552,13.07284 -66.7069,26.59637 -25.2875,9.06104 -46.0703,18.03837 -61.74496,26.67133 -4.68279,2.57909 -8.6897,4.68926 -8.90423,4.68926 -0.21454,0 -0.69715,-0.57379 -1.07248,-1.27507 z"
   id="path26" /><path
   style="fill:#ffffff;stroke:none;stroke-width:6.27836"
   d="m 183.6848,771.42365 c 0.92083,-0.9208 1.67425,-48.42996 1.67425,-105.57586 V 561.94613 l -9.41755,-9.61881 c -17.95034,-18.33396 -37.10395,-43.02191 -49.88165,-64.29466 l -12.83932,-21.37536 -1.60089,11.67991 c -2.33237,17.01641 -1.92238,58.1959 0.9094,91.34186 6.17654,72.29606 26.25596,136.91403 58.32198,187.68696 10.68248,16.91451 10.34574,16.54564 12.83378,14.05762 z"
   id="path27" /><path
   style="fill:#ffffff;stroke:none;stroke-width:6.27836"
   d="m 743.73236,559.8096 c 52.52579,-9.52107 107.28421,-54.65803 131.73873,-108.5913 16.90984,-37.29385 24.1136,-89.84978 17.73926,-129.41904 -3.77995,-23.46423 -15.2502,-56.08566 -25.28372,-71.90686 l -7.3737,-11.62711 -12.57826,6.37388 c -6.91804,3.50565 -12.57829,6.88102 -12.57829,7.50082 0,0.61981 3.99476,8.39445 8.87723,17.27705 15.04973,27.37959 14.07419,49.94553 -2.15914,49.94553 -8.94049,0 -12.86158,-3.66294 -16.33638,-15.26084 -3.80168,-12.68883 -16.88595,-30.57117 -22.36853,-30.57117 -3.43602,0 -28.91139,9.0541 -32.98972,11.72474 -0.5155,0.33756 3.68006,5.85937 9.32351,12.27067 22.70613,25.79554 31.80851,50.61849 30.00235,81.8189 -2.18756,37.78906 -28.42016,76.74382 -63.2832,93.97408 -53.83685,26.6076 -122.4654,2.72083 -149.40166,-52.00057 -7.10889,-14.44187 -8.41105,-20.11758 -9.61084,-41.89143 l -1.38785,-25.18624 -6.31079,9.24395 c -12.74213,18.66439 -16.60986,30.66734 -16.33114,50.68112 0.48126,34.55487 19.26083,75.85347 47.47069,104.3939 27.38799,27.70891 56.43545,40.54871 95.89616,42.38877 13.4137,0.62548 30.03909,0.1129 36.94529,-1.13885 z"
   id="path28" /></svg>
